<svg xmlns="http://www.w3.org/2000/svg" viewBox="0 0 512 512">
  <defs>
    <linearGradient id="bg" x1="0%" y1="0%" x2="120%" y2="120%">
      <stop offset="0%" stop-color="#2E7D32"/>
      <stop offset="100%" stop-color="#071A07"/>
    </linearGradient>
    <radialGradient id="glow" cx="50%" cy="42%" r="55%">
      <stop offset="0%" stop-color="#FFD54F" stop-opacity="0.12"/>
      <stop offset="100%" stop-color="#FFD54F" stop-opacity="0"/>
    </radialGradient>
    <filter id="shadow" x="-20%" y="-20%" width="140%" height="140%">
      <feDropShadow dx="0" dy="4" stdDeviation="7" flood-color="#000000" flood-opacity="0.4"/>
    </filter>
  </defs>
  <rect width="512" height="512" rx="100" fill="url(#bg)"/>
  <rect width="512" height="512" rx="100" fill="url(#glow)"/>
  <rect x="18" y="18" width="476" height="476" rx="86" fill="none" stroke="#FFD54F" stroke-width="2" stroke-opacity="0.3" stroke-dasharray="13,23"/>
  <g fill="#FFD54F" opacity="0.25">
    <circle cx="134" cy="58" r="4"/>
    <circle cx="256" cy="48" r="4"/>
    <circle cx="378" cy="58" r="4"/>
  </g>
  <g transform="translate(256,147)" filter="url(#shadow)">
    <circle cx="0" cy="0" r="70" fill="#FFD54F"/>
    <circle cx="29" cy="-19" r="56" fill="#0E2C0E"/>
    <g transform="translate(68,-58)">
      <polygon points="0,-18 4.8,-5.8 18.8,-5.8 7.8,2.6 11.6,15.4 0,8 -11.6,15.4 -7.8,2.6 -18.8,-5.8 -4.8,-5.8" fill="#FFD54F"/>
    </g>
  </g>
  <line x1="148" y1="246" x2="364" y2="246" stroke="#FFD54F" stroke-width="1.5" stroke-opacity="0.35"/>
  <text x="256" y="368" fill="#FFD54F" font-family="'Noto Naskh Arabic','Traditional Arabic','Arabic Typesetting','Scheherazade New',serif" font-size="138" font-weight="700" text-anchor="middle" direction="rtl" filter="url(#shadow)">&#x062A;&#x0642;&#x0648;&#x0649;</text>
  <g opacity="0.55" fill="#FFD54F">
    <circle cx="219" cy="406" r="5.5"/>
    <circle cx="256" cy="406" r="7.5"/>
    <circle cx="293" cy="406" r="5.5"/>
  </g>
  <line x1="118" y1="424" x2="198" y2="424" stroke="#FFD54F" stroke-width="2" stroke-opacity="0.4"/>
  <line x1="314" y1="424" x2="394" y2="424" stroke="#FFD54F" stroke-width="2" stroke-opacity="0.4"/>
  <g fill="#FFD54F" opacity="0.2">
    <circle cx="134" cy="458" r="4"/>
    <circle cx="256" cy="466" r="4"/>
    <circle cx="378" cy="458" r="4"/>
  </g>
</svg>
