<?xml version="1.0" encoding="UTF-8"?>
<svg version="1.1" xmlns="http://www.w3.org/2000/svg" width="389" height="235">
<path d="M0 0 C95.7 0 191.4 0 290 0 C290 77.55 290 155.1 290 235 C194.3 235 98.6 235 0 235 C0 157.45 0 79.9 0 0 Z " fill="#F8EEE2" transform="translate(99,0)"/>
<path d="M0 0 C4.02047064 0.62589744 7.20935811 1.94609157 10.875 3.6875 C17.31720875 6.58898678 23.92288471 8.52481169 30.75 10.3125 C32.18641846 10.69378052 32.18641846 10.69378052 33.65185547 11.08276367 C39.75424808 12.62966392 45.7202681 13.5645254 52 14 C51.73393339 21.18379838 49.29818287 26.24770552 45 32 C44.01 32.66 43.02 33.32 42 34 C41.67 34.99 41.34 35.98 41 37 C41.598125 37.185625 42.19625 37.37125 42.8125 37.5625 C46.02264417 39.67202331 46.57340686 42.49295852 48 46 C48.61875 46.7425 49.2375 47.485 49.875 48.25 C53.11104789 52.43782668 54.98449839 57.13033167 57 62 C57.30164063 62.721875 57.60328125 63.44375 57.9140625 64.1875 C62.86336131 77.38563016 64.41849147 94.47768476 59.734375 107.8671875 C58.81503599 110.5371827 58.36770596 113.20543473 58 116 C58.99 116.680625 58.99 116.680625 60 117.375 C60.66 117.91125 61.32 118.4475 62 119 C62 119.66 62 120.32 62 121 C62.9472998 120.97381592 63.89459961 120.94763184 64.87060547 120.9206543 C68.43049721 120.83475587 71.98926695 120.77242889 75.54980469 120.7253418 C77.0822095 120.70040241 78.61449792 120.66643734 80.14648438 120.62280273 C97.82151765 120.13247055 97.82151765 120.13247055 105 126 C105.33 126.99 105.66 127.98 106 129 C45.94 129 -14.12 129 -76 129 C-76 128.34 -76 127.68 -76 127 C-65.65609268 120.13283846 -56.2783513 120.10249186 -44.25 120.125 C-42.47392902 120.10683711 -40.69788308 120.08602329 -38.921875 120.0625 C-34.61426232 120.0111297 -30.30790178 119.99553519 -26 120 C-25.93378559 116.3094065 -25.93378559 116.3094065 -26.2109375 113.88671875 C-26.5520636 109.31400463 -26.23854219 106.65175419 -23.25 103.0625 C-21.05522186 100.71807789 -18.98147638 99.21489293 -16 98 C-15.01 98 -14.02 98 -13 98 C-13.804375 97.278125 -14.60875 96.55625 -15.4375 95.8125 C-18.02292072 92.97484311 -18.68042813 91.72833853 -19 88 C-17.68 88 -16.36 88 -15 88 C-15 87.01 -15 86.02 -15 85 C-14.24074219 85.02320313 -13.48148438 85.04640625 -12.69921875 85.0703125 C-11.70535156 85.08835937 -10.71148437 85.10640625 -9.6875 85.125 C-8.70136719 85.14820313 -7.71523437 85.17140625 -6.69921875 85.1953125 C-3.77593473 85.20682639 -3.77593473 85.20682639 -1 83 C1.01615112 82.82751021 3.03950241 82.73331282 5.0625 82.6875 C12.59798958 82.20812176 18.83925972 80.3225332 24.13671875 74.75390625 C26.25385715 71.62480233 27.22378697 68.81589607 28.25 65.1875 C28.58515625 64.02605469 28.9203125 62.86460937 29.265625 61.66796875 C29.50796875 60.78753906 29.7503125 59.90710938 30 59 C29.34 59 28.68 59 28 59 C27.90203125 59.72445312 27.8040625 60.44890625 27.703125 61.1953125 C26.78745959 67.11556298 25.87897841 71.37025158 22 76 C21.67 76 21.34 76 21 76 C21.48036374 71.10028987 22.32944821 66.47248731 23.5 61.6875 C24.91065052 55.79717393 25.64896746 50.04018064 26 44 C24.71416016 44.10441406 24.71416016 44.10441406 23.40234375 44.2109375 C12.88756031 44.70881902 12.88756031 44.70881902 8.9375 41.625 C4.21066604 36.66416436 2.37393442 30.14668823 1.125 23.5625 C0.35702554 19.76492882 0.35702554 19.76492882 -3 18.1875 C-3.99 17.795625 -4.98 17.40375 -6 17 C-8.1610211 13.75846834 -8.64247553 12.76307099 -8 9 C-5.6875 7 -5.6875 7 -3 5 C-1.21037181 2.38142305 -1.21037181 2.38142305 0 0 Z " fill="#E39F90" transform="translate(225,78)"/>
<path d="M0 0 C2.3125 -0.1875 2.3125 -0.1875 5 0 C5.44085938 0.48984375 5.88171875 0.9796875 6.3359375 1.484375 C8.63406475 3.57750499 10.24664216 3.36541206 13.3125 3.4375 C18.45043075 3.76458312 21.15858047 4.57386907 25 8 C25 8.66 25 9.32 25 10 C25.9472998 9.97381592 26.89459961 9.94763184 27.87060547 9.9206543 C31.43049721 9.83475587 34.98926695 9.77242889 38.54980469 9.7253418 C40.0822095 9.70040241 41.61449792 9.66643734 43.14648438 9.62280273 C60.82151765 9.13247055 60.82151765 9.13247055 68 15 C68.33 15.99 68.66 16.98 69 18 C8.94 18 -51.12 18 -113 18 C-113 17.34 -113 16.68 -113 16 C-102.59690741 9.05402059 -93.04758179 9.10276539 -80.9375 9.125 C-79.13864295 9.10683464 -77.33981063 9.08602007 -75.54101562 9.0625 C-71.02699616 9.00975991 -66.5143163 8.99586358 -62 9 C-61.01 9 -60.02 9 -59 9 C-58.34 9.33 -57.68 9.66 -57 10 C-55.02965512 10.12016672 -53.05535064 10.17735333 -51.08154297 10.20532227 C-49.21983963 10.2352401 -49.21983963 10.2352401 -47.32052612 10.26576233 C-45.9610812 10.2827466 -44.60163495 10.29962541 -43.2421875 10.31640625 C-41.85498433 10.33697581 -40.46778743 10.35797228 -39.08059692 10.37937927 C-35.42772495 10.43459981 -31.77479641 10.48400911 -28.12182617 10.53222656 C-24.39496826 10.58244175 -20.66819259 10.63812771 -16.94140625 10.69335938 C-9.62767379 10.80094071 -2.31387299 10.90238568 5 11 C5 8.03 5 5.06 5 2 C3.35 2 1.7 2 0 2 C0 1.34 0 0.68 0 0 Z " fill="#764348" transform="translate(262,189)"/>
<path d="M0 0 C6.94676665 4.41785457 11.14594096 9.2028517 13.48046875 17.1484375 C14.18037759 20.65396381 14.13194283 23.87271487 13.9375 27.4375 C6.43026495 27.82411238 -0.08451633 26.79571033 -7.3125 24.8125 C-8.31450439 24.54397217 -9.31650879 24.27544434 -10.34887695 23.9987793 C-19.64604141 21.42559745 -29.45231184 18.59466894 -37.0625 12.4375 C-35.01624509 6.46925652 -32.18878678 2.82693915 -26.75 -0.375 C-18.14613486 -4.35968091 -8.45579151 -4.28549652 0 0 Z " fill="#FAFAFC" transform="translate(263.0625,64.5625)"/>
<path d="M0 0 C4.02047064 0.62589744 7.20935811 1.94609157 10.875 3.6875 C17.31720875 6.58898678 23.92288471 8.52481169 30.75 10.3125 C32.18641846 10.69378052 32.18641846 10.69378052 33.65185547 11.08276367 C39.75424808 12.62966392 45.7202681 13.5645254 52 14 C51.73438188 21.17168913 49.33545181 26.28370171 45 32 C42.09440492 34.64719236 41.5134752 35.01801667 37.4375 34.875 C34.00680145 34.00173128 33.03511439 33.72988153 31 31 C30.7421875 28.7734375 30.7421875 28.7734375 30.875 26.375 C30.94573847 24.91778749 30.99418758 23.45891687 31 22 C29.88741409 20.67254834 29.88741409 20.67254834 27.0625 20.75 C26.051875 20.8325 25.04125 20.915 24 21 C23.34 21.99 22.68 22.98 22 24 C21.34 24 20.68 24 20 24 C17 19.61538462 17 19.61538462 17 17 C15.71802734 17.48533203 15.71802734 17.48533203 14.41015625 17.98046875 C10.91240652 19.02618774 8.07719865 19.29960851 4.4375 19.3125 C3.34308594 19.32925781 2.24867188 19.34601563 1.12109375 19.36328125 C-2.37810666 18.95599009 -4.23556533 18.1617381 -7 16 C-8.125 12.5625 -8.125 12.5625 -8 9 C-5.75 6.875 -5.75 6.875 -3 5 C-1.21037181 2.38142305 -1.21037181 2.38142305 0 0 Z " fill="#632F38" transform="translate(225,78)"/>
<path d="M0 0 C-0.54269531 0.43570312 -1.08539063 0.87140625 -1.64453125 1.3203125 C-6.77682347 5.592599 -10.53135893 8.805959 -11.30859375 15.76171875 C-11.59703819 22.72808899 -10.5339282 27.03649616 -7 33 C-7 33.66 -7 34.32 -7 35 C-5.67661368 35.68620031 -4.34050052 36.34786461 -3 37 C-1.948125 37.5259375 -1.948125 37.5259375 -0.875 38.0625 C5.8564883 40.25755053 12.36452415 40.73225476 19 38 C20.70294787 36.71332828 22.37946188 35.38903267 24 34 C24.66 34 25.32 34 26 34 C26.66 32.68 27.32 31.36 28 30 C28.85146792 32.37987929 29.18422326 33.54723238 28.21484375 35.9296875 C24.02394536 42.31215662 19.93865449 48.09770393 12.40625 50.53125 C4.56888354 52.0580097 -2.99441996 51.94063877 -10 48 C-10.845625 47.62875 -11.69125 47.2575 -12.5625 46.875 C-18.19589044 42.54162274 -21.78236869 35.94049847 -23 29 C-23.79264073 20.10801221 -22.07175252 14.25981051 -16.3125 7.3125 C-11.92765173 2.5884922 -6.79108476 -2.25367857 0 0 Z " fill="#FCFCFB" transform="translate(198,25)"/>
<path d="M0 0 C3 4.22222222 3 4.22222222 3 7 C3.53625 6.34 4.0725 5.68 4.625 5 C7 3 7 3 10.125 2.625 C13 3 13 3 15 5 C15.01953125 7.05859375 15.01953125 7.05859375 14.8125 9.4375 C14.69871979 11.82513806 14.69871979 11.82513806 15 14 C17.72985705 16.4265396 20.43718382 17.34021923 24 18 C24 18.66 24 19.32 24 20 C24.99 20.33 25.98 20.66 27 21 C27 22.32 27 23.64 27 25 C24.75692972 26.20250158 22.5071209 27.3869162 20.25 28.5625 C19.61578125 28.90474609 18.9815625 29.24699219 18.328125 29.59960938 C13.54904562 32.06382218 13.54904562 32.06382218 10.546875 31.71484375 C10.03640625 31.47894531 9.5259375 31.24304688 9 31 C9 29.68 9 28.36 9 27 C8.14277344 27.06960937 7.28554687 27.13921875 6.40234375 27.2109375 C-4.11243969 27.70881902 -4.11243969 27.70881902 -8.0625 24.625 C-13.83841803 18.54884861 -15.45724932 9.9708785 -17 2 C-16.24074219 1.93941406 -15.48148438 1.87882812 -14.69921875 1.81640625 C-13.70535156 1.73261719 -12.71148437 1.64882812 -11.6875 1.5625 C-10.70136719 1.48128906 -9.71523437 1.40007812 -8.69921875 1.31640625 C-5.61423387 0.95477995 -3.13154097 0 0 0 Z " fill="#FA9168" transform="translate(242,95)"/>
<path d="M0 0 C0.66 0 1.32 0 2 0 C0.68199752 9.59977923 -2.37628931 16.55103145 -10.046875 22.6875 C-18.78485176 28.55942038 -29.54335296 31.18344995 -40 31 C-40.99 30.34 -41.98 29.68 -43 29 C-44.258125 29.04125 -45.51625 29.0825 -46.8125 29.125 C-51.2411681 29.23122267 -53.66299642 28.01144225 -57 25 C-57.875 22.25 -57.875 22.25 -58 20 C-56.68 20 -55.36 20 -54 20 C-54 19.01 -54 18.02 -54 17 C-53.22914063 17.01160156 -52.45828125 17.02320313 -51.6640625 17.03515625 C-50.15972656 17.04869141 -50.15972656 17.04869141 -48.625 17.0625 C-47.12839844 17.07990234 -47.12839844 17.07990234 -45.6015625 17.09765625 C-43.01567547 17.18006602 -43.01567547 17.18006602 -41 16 C-40.67 20.29 -40.34 24.58 -40 29 C-36.83006873 28.43134821 -33.66487666 27.8456369 -30.5 27.25 C-29.613125 27.09273437 -28.72625 26.93546875 -27.8125 26.7734375 C-18.74910418 25.04072948 -10.39528783 21.87031065 -5 14 C-3.01060769 9.4133455 -1.44168926 4.79012884 0 0 Z " fill="#FA8B63" transform="translate(264,146)"/>
<path d="M0 0 C2.00404164 -0.02450692 4.00760838 -0.08108486 6.01098633 -0.13818359 C13.92903605 -0.21005696 18.79075681 0.23031665 24.97387695 5.35009766 C24.97387695 5.68009766 24.97387695 6.01009766 24.97387695 6.35009766 C10.45387695 6.35009766 -4.06612305 6.35009766 -19.02612305 6.35009766 C-17.64822012 3.5942918 -15.65462312 2.8614852 -13.02612305 1.35009766 C-10.4258144 -1.25021099 -3.52056658 0.03148301 0 0 Z " fill="#622E36" transform="translate(306.026123046875,199.64990234375)"/>
<path d="M0 0 C0.66 0 1.32 0 2 0 C0.68199752 9.59977923 -2.37628931 16.55103145 -10.046875 22.6875 C-18.60427886 28.43807539 -29.71297873 31.55646168 -40 31 C-41.84765625 29.8671875 -41.84765625 29.8671875 -43 28 C-43.29296875 25.30078125 -43.29296875 25.30078125 -43.1875 22.3125 C-43.16042969 21.31863281 -43.13335937 20.32476562 -43.10546875 19.30078125 C-43.07066406 18.54152344 -43.03585938 17.78226563 -43 17 C-42.34 16.67 -41.68 16.34 -41 16 C-40.67 20.29 -40.34 24.58 -40 29 C-36.83006873 28.43134821 -33.66487666 27.8456369 -30.5 27.25 C-29.613125 27.09273437 -28.72625 26.93546875 -27.8125 26.7734375 C-18.74910418 25.04072948 -10.39528783 21.87031065 -5 14 C-3.01060769 9.4133455 -1.44168926 4.79012884 0 0 Z " fill="#8C4A40" transform="translate(264,146)"/>
<path d="M0 0 C0 1.32 0 2.64 0 4 C-2.24307028 5.20250158 -4.4928791 6.3869162 -6.75 7.5625 C-7.38421875 7.90474609 -8.0184375 8.24699219 -8.671875 8.59960938 C-13.45095438 11.06382218 -13.45095438 11.06382218 -16.453125 10.71484375 C-16.96359375 10.47894531 -17.4740625 10.24304688 -18 10 C-18.0625 7.75 -18.0625 7.75 -17 5 C-14.14276695 3.29375759 -11.098131 2.19238991 -8 1 C-7.28972656 0.62488281 -6.57945312 0.24976562 -5.84765625 -0.13671875 C-3.50801168 -1.22987192 -2.38046482 -0.85016601 0 0 Z " fill="#D98174" transform="translate(269,116)"/>
<path d="M0 0 C1.91595968 -0.08133791 3.83291932 -0.13934367 5.75 -0.1875 C7.35101563 -0.23970703 7.35101563 -0.23970703 8.984375 -0.29296875 C12.31488541 0.0305912 13.65757124 0.65188574 16 3 C16 3.66 16 4.32 16 5 C10.72 5 5.44 5 0 5 C0 3.35 0 1.7 0 0 Z " fill="#F8926C" transform="translate(269,195)"/>
<path d="M0 0 C1.65 0.33 3.3 0.66 5 1 C3.8553125 1.804375 3.8553125 1.804375 2.6875 2.625 C-0.22864474 5.20205814 -1.4705622 7.45814404 -3 11 C-4.32 10.67 -5.64 10.34 -7 10 C-5.33248852 6.05860922 -2.77289351 3.2107188 0 0 Z " fill="#703C45" transform="translate(249,87)"/>
<path d="M0 0 C6.95230941 -0.44534366 11.59696035 -0.67289916 17 4 C16.01 5.485 16.01 5.485 15 7 C14.46890625 6.35546875 13.9378125 5.7109375 13.390625 5.046875 C10.39521524 2.48217775 8.64317797 2.41926861 4.75 2.25 C3.67234375 2.19328125 2.5946875 2.1365625 1.484375 2.078125 C0.25460937 2.03945312 0.25460937 2.03945312 -1 2 C-0.67 1.34 -0.34 0.68 0 0 Z " fill="#894C4D" transform="translate(270,193)"/>
<path d="M0 0 C0.66 0 1.32 0 2 0 C1.49228528 5.96564796 -0.38592128 10.63809899 -3 16 C-3.66 15.34 -4.32 14.68 -5 14 C-4.54625 13.175 -4.0925 12.35 -3.625 11.5 C-1.83692258 7.64875632 -0.92631097 4.13277201 0 0 Z " fill="#F4DED3" transform="translate(253,137)"/>
<path d="M0 0 C2.69027121 -0.2181301 4.46618158 -0.28470316 6.875 1 C8.74759551 4.32905868 7.66374222 7.31924768 7 11 C6.34 11 5.68 11 5 11 C5 8.03 5 5.06 5 2 C3.35 2 1.7 2 0 2 C0 1.34 0 0.68 0 0 Z " fill="#763F42" transform="translate(262,189)"/>
<path d="M0 0 C1.98 0 3.96 0 6 0 C6.33 1.32 6.66 2.64 7 4 C4.36 4 1.72 4 -1 4 C-0.67 2.68 -0.34 1.36 0 0 Z " fill="#885D5E" transform="translate(137,203)"/>
<path d="M0 0 C-2.00530737 3.00796105 -3.58687035 4.72007638 -7 6 C-7.99 6 -8.98 6 -10 6 C-7.82304683 0.97626191 -5.41372848 -0.29263397 0 0 Z " fill="#6C3941" transform="translate(294,200)"/>
<path d="M0 0 C1.65 0 3.3 0 5 0 C5.33 0.99 5.66 1.98 6 3 C3.69 3 1.38 3 -1 3 C-0.67 2.01 -0.34 1.02 0 0 Z " fill="#6F3D41" transform="translate(338,203)"/>
</svg>
